<svg xmlns="http://www.w3.org/2000/svg" viewBox="0 0 64 64">
  <defs>
    <linearGradient id="g" x1="0%" y1="0%" x2="100%" y2="100%">
      <stop offset="0%" stop-color="#a855f7"/>
      <stop offset="100%" stop-color="#ec4899"/>
    </linearGradient>
  </defs>
  <rect width="64" height="64" rx="14" fill="url(#g)"/>
  <path d="M16 24h32a4 4 0 0 1 4 4v18a4 4 0 0 1-4 4H16a4 4 0 0 1-4-4V20a4 4 0 0 1 4-4h28a2 2 0 0 1 0 4H16a2 2 0 0 0 0 4z"
        fill="none" stroke="#fff" stroke-width="3" stroke-linejoin="round"/>
  <circle cx="44" cy="37" r="3.2" fill="#fff"/>
</svg>
